<?xml version="1.0" standalone="no"?>
<!DOCTYPE svg PUBLIC "-//W3C//DTD SVG 20010904//EN"
 "http://www.w3.org/TR/2001/REC-SVG-20010904/DTD/svg10.dtd">
<svg version="1.0" xmlns="http://www.w3.org/2000/svg"
 width="683.000000pt" height="562.000000pt" viewBox="0 0 683.000000 562.000000"
 preserveAspectRatio="xMidYMid meet">

<g transform="translate(0.000000,562.000000) scale(0.100000,-0.100000)"
fill="#000000" stroke="none">
<path d="M20 5170 l0 -430 3395 0 3395 0 0 430 0 430 -3395 0 -3395 0 0 -430z
m2429 119 c33 -31 12 -50 -28 -26 -39 23 -57 21 -86 -8 -17 -16 -25 -35 -25
-60 0 -25 8 -44 25 -60 29 -29 47 -31 86 -8 40 24 61 5 28 -26 -25 -23 -95
-29 -129 -11 -26 14 -60 73 -60 105 0 31 33 90 58 105 32 18 106 12 131 -11z
m1019 -2 c3 -12 -3 -17 -22 -17 -25 0 -35 18 -19 34 12 12 38 2 41 -17z m-762
-11 c3 -14 12 -27 20 -30 19 -7 18 -26 -1 -26 -12 0 -15 -13 -15 -55 0 -42 3
-55 15 -55 8 0 15 -7 15 -15 0 -10 -10 -15 -30 -15 -37 0 -50 23 -50 89 0 28
-4 51 -10 51 -5 0 -10 7 -10 15 0 8 5 15 10 15 6 0 10 6 10 13 0 14 20 37 32
37 4 0 10 -11 14 -24z m-1806 -13 c0 -9 -7 -25 -17 -35 -15 -17 -14 -18 44
-18 41 0 64 -5 73 -15 20 -25 1 -35 -67 -35 l-65 0 16 -25 c19 -29 21 -55 4
-55 -20 0 -98 83 -98 104 0 25 68 96 92 96 10 0 18 -7 18 -17z m1714 -35 c10
-15 16 -44 16 -84 l0 -62 -57 -1 c-68 -1 -79 5 -88 41 -10 39 26 72 71 65 36
-6 43 3 19 23 -12 10 -21 10 -42 1 -33 -15 -51 0 -28 23 25 25 90 21 109 -6z
m281 -9 c40 -49 31 -63 -44 -69 -63 -5 -64 -6 -47 -23 15 -14 27 -17 57 -12
31 5 39 4 39 -8 0 -19 -21 -27 -70 -27 -30 0 -43 6 -59 26 -71 90 50 200 124
113z m195 -70 c0 -120 -8 -131 -84 -127 -38 2 -52 7 -54 20 -3 13 5 16 44 15
30 -1 48 3 51 11 3 8 -8 12 -36 12 -50 0 -71 26 -71 87 0 62 24 83 95 81 l55
-2 0 -97z m175 76 c31 -30 33 -82 4 -119 -46 -58 -149 -18 -149 59 0 75 92
113 145 60z m142 9 c2 -6 -8 -16 -21 -22 -22 -10 -25 -19 -28 -69 -3 -51 -6
-58 -25 -61 -22 -3 -23 -1 -23 76 0 43 3 81 6 84 10 10 87 3 91 -8z m58 -69
c0 -75 -1 -80 -22 -83 -22 -3 -23 -1 -23 76 0 82 4 95 30 90 12 -3 15 -19 15
-83z m172 46 c13 -19 22 -39 20 -45 -2 -6 -31 -12 -65 -14 -63 -3 -73 -10 -47
-32 9 -8 28 -10 55 -5 32 5 40 4 40 -8 0 -19 -21 -27 -70 -27 -47 0 -80 35
-80 87 0 83 101 113 147 44z m153 24 c18 -21 -3 -46 -22 -27 -14 14 -44 16
-53 3 -3 -6 14 -19 39 -29 52 -23 67 -54 40 -83 -32 -36 -142 -17 -119 21 4 7
12 7 25 0 10 -5 28 -10 39 -10 39 0 31 20 -16 42 -53 25 -64 49 -37 79 21 24
86 26 104 4z m1468 -48 c3 -51 5 -56 28 -59 39 -5 28 -23 -13 -23 l-38 0 -3
73 c-2 57 0 73 10 70 8 -3 14 -26 16 -61z m602 39 c0 -8 5 -16 11 -18 8 -3 8
-10 -2 -25 -11 -18 -11 -26 1 -47 15 -29 9 -42 -15 -33 -9 4 -15 19 -15 41 0
19 -4 38 -10 41 -6 4 -10 -10 -10 -34 0 -23 -3 -41 -7 -42 -5 0 -21 -3 -36 -5
-41 -7 -57 11 -57 62 0 57 27 63 32 7 2 -26 8 -38 18 -38 10 0 16 12 18 38 3
32 7 37 28 37 15 0 24 6 24 15 0 8 5 15 10 15 6 0 10 -6 10 -14z m-446 -32
c20 -20 20 -43 0 -72 -40 -58 -118 5 -84 69 13 23 62 26 84 3z m126 -43 c0
-39 -5 -63 -14 -70 -17 -14 -83 -11 -76 4 3 6 16 9 30 7 22 -2 21 0 -7 13 -28
12 -33 19 -33 48 0 43 15 57 62 57 l38 0 0 -59z m160 40 c14 -28 12 -52 -7
-73 -45 -50 -116 11 -83 73 7 13 21 19 45 19 24 0 38 -6 45 -19z"/>
<path d="M2525 5140 c-4 -7 -3 -16 3 -22 14 -14 57 -6 57 12 0 18 -50 26 -60
10z"/>
<path d="M2810 5205 c-11 -13 -7 -15 25 -15 32 0 36 2 25 15 -7 8 -18 15 -25
15 -7 0 -18 -7 -25 -15z"/>
<path d="M2991 5207 c-11 -14 -15 -38 -13 -69 3 -27 52 -35 69 -13 35 49 -18
127 -56 82z"/>
<path d="M3174 5195 c-33 -51 18 -111 60 -69 21 21 20 57 -2 77 -25 23 -39 21
-58 -8z"/>
<path d="M3540 5205 c-11 -13 -7 -15 30 -15 37 0 41 2 30 15 -7 8 -20 15 -30
15 -10 0 -23 -7 -30 -15z"/>
<path d="M5362 5181 c-19 -11 -11 -45 11 -49 9 -2 20 4 23 13 9 21 -16 47 -34
36z"/>
<path d="M5476 5183 c-3 -4 -6 -17 -6 -30 0 -31 34 -28 38 3 3 21 -20 39 -32
27z"/>
<path d="M5642 5181 c-19 -11 -11 -45 11 -49 9 -2 20 4 23 13 9 21 -16 47 -34
36z"/>
<path d="M670 3667 c0 -136 7 -147 88 -147 78 0 108 40 52 72 -61 35 -44 108
30 128 34 9 60 33 60 54 0 3 -52 6 -115 6 l-115 0 0 -113z"/>
<path d="M957 3714 c-9 -10 2 -24 19 -24 8 0 14 7 14 15 0 15 -21 21 -33 9z"/>
<path d="M1047 3714 c-9 -10 2 -24 19 -24 8 0 14 7 14 15 0 15 -21 21 -33 9z"/>
<path d="M2872 3630 c-65 -27 -38 -130 33 -130 38 0 58 20 53 52 -3 24 -28 34
-56 22 -14 -6 -13 -8 8 -13 31 -9 33 -35 2 -39 -31 -5 -52 15 -52 48 0 39 21
53 67 44 26 -4 35 -3 28 4 -15 16 -57 22 -83 12z"/>
<path d="M4962 3622 c-27 -18 -29 -53 -2 -70 11 -7 20 -19 20 -28 0 -11 -6
-15 -20 -11 -27 7 -25 -7 3 -26 20 -13 25 -13 45 3 27 23 28 56 2 70 -23 13
-27 40 -5 40 20 0 19 13 -3 26 -13 9 -23 8 -40 -4z m18 -32 c0 -5 -7 -10 -16
-10 -8 0 -12 5 -9 10 3 6 10 10 16 10 5 0 9 -4 9 -10z m30 -71 c0 -5 -4 -9
-10 -9 -5 0 -10 7 -10 16 0 8 5 12 10 9 6 -3 10 -10 10 -16z"/>
<path d="M3440 3565 c0 -38 4 -65 10 -65 7 0 10 26 9 65 -1 36 -6 65 -10 65
-5 0 -9 -29 -9 -65z"/>
<path d="M5062 3595 c-16 -35 -15 -56 4 -83 17 -24 53 -29 72 -10 7 7 12 30
12 53 0 48 -13 65 -50 65 -19 0 -30 -8 -38 -25z m68 -15 c9 -35 1 -68 -18 -75
-21 -8 -42 20 -42 55 0 51 49 67 60 20z"/>
<path d="M2980 3550 c0 -27 5 -50 10 -50 6 0 10 16 10 35 0 22 6 38 15 41 24
9 17 24 -10 24 -23 0 -25 -3 -25 -50z"/>
<path d="M3055 3580 c-24 -27 -13 -68 22 -76 34 -9 57 6 61 42 6 49 -49 72
-83 34z m60 -30 c0 -18 -6 -26 -21 -28 -26 -4 -40 24 -23 45 18 21 44 11 44
-17z"/>
<path d="M3166 3578 c-21 -29 -20 -41 2 -61 21 -19 57 -22 67 -7 4 6 -7 10
-25 10 -28 0 -31 3 -28 28 2 22 8 27 31 27 34 -1 30 19 -5 23 -18 2 -31 -4
-42 -20z"/>
<path d="M3264 3575 c-15 -23 -15 -27 0 -51 13 -18 24 -24 43 -22 35 4 40 24
7 23 -15 0 -29 6 -31 13 -3 8 7 12 31 12 37 0 47 15 24 38 -20 20 -56 14 -74
-13z m61 -5 c-3 -5 -12 -10 -20 -10 -8 0 -17 5 -20 10 -4 6 5 10 20 10 15 0
24 -4 20 -10z"/>
<path d="M3377 3593 c-11 -10 -8 -93 3 -93 6 0 10 16 10 35 0 22 6 38 15 41 8
4 15 10 15 15 0 10 -33 12 -43 2z"/>
<path d="M3496 3584 c-32 -32 -8 -84 39 -84 37 0 39 18 3 22 -45 4 -42 22 5
26 20 2 37 7 37 12 0 15 -31 40 -50 40 -10 0 -26 -7 -34 -16z m54 -14 c0 -5
-9 -10 -20 -10 -11 0 -20 5 -20 10 0 6 9 10 20 10 11 0 20 -4 20 -10z"/>
<path d="M3599 3584 c-12 -15 -12 -18 4 -28 51 -31 54 -35 18 -36 -25 0 -32
-3 -24 -11 6 -6 23 -9 39 -7 36 4 40 37 6 54 -35 18 -40 27 -9 22 18 -4 26 -1
24 6 -6 18 -43 18 -58 0z"/>
<path d="M1007 3564 c-13 -13 -7 -24 14 -24 11 0 19 5 17 12 -5 14 -22 21 -31
12z"/>
<path d="M842 2613 c-10 -4 -12 -32 -6 -134 6 -111 5 -132 -9 -147 -42 -46
-47 -82 -47 -332 0 -292 -5 -280 123 -280 125 0 119 -17 115 303 l-3 266 -28
29 c-27 29 -28 33 -23 103 3 41 8 95 12 122 8 64 -4 77 -70 76 -28 0 -57 -3
-64 -6z m89 -439 c9 -11 10 -20 2 -32 -13 -22 -43 -22 -56 -1 -24 38 25 68 54
33z"/>
<path d="M502 2558 c6 -18 28 -21 28 -4 0 9 -7 16 -16 16 -9 0 -14 -5 -12 -12z"/>
<path d="M1080 2524 c0 -17 22 -14 28 4 2 7 -3 12 -12 12 -9 0 -16 -7 -16 -16z"/>
<path d="M466 2523 c-11 -11 -6 -23 9 -23 8 0 15 4 15 9 0 13 -16 22 -24 14z"/>
<path d="M550 2510 c0 -5 4 -10 9 -10 6 0 13 5 16 10 3 6 -1 10 -9 10 -9 0
-16 -4 -16 -10z"/>
<path d="M1040 2486 c0 -9 7 -16 16 -16 17 0 14 22 -4 28 -7 2 -12 -3 -12 -12z"/>
<path d="M1130 2485 c0 -8 5 -15 10 -15 6 0 10 7 10 15 0 8 -4 15 -10 15 -5 0
-10 -7 -10 -15z"/>
<path d="M502 2469 c2 -6 8 -10 13 -10 5 0 11 4 13 10 2 6 -4 11 -13 11 -9 0
-15 -5 -13 -11z"/>
<path d="M1080 2434 c0 -17 22 -14 28 4 2 7 -3 12 -12 12 -9 0 -16 -7 -16 -16z"/>
<path d="M530 2372 c0 -26 4 -52 9 -57 5 -6 6 -49 2 -97 -6 -85 -7 -87 -41
-110 l-35 -24 -3 -169 c-2 -151 -1 -171 15 -182 21 -16 225 -18 254 -3 18 10
19 23 19 180 0 184 3 173 -64 215 -12 8 -15 28 -15 95 0 47 3 111 6 143 l5 57
-76 0 -76 0 0 -48z m115 -2 c0 -10 -12 -16 -37 -18 -33 -3 -38 0 -38 18 0 18
5 21 38 18 25 -2 37 -8 37 -18z m-32 -67 c-7 -2 -19 -2 -25 0 -7 3 -2 5 12 5
14 0 19 -2 13 -5z m47 -349 l0 -75 -52 3 -53 3 -3 73 -3 72 56 0 55 0 0 -76z"/>
<path d="M578 1998 c-9 -23 3 -38 28 -38 28 0 44 28 23 41 -20 13 -46 11 -51
-3z"/>
<path d="M577 1937 c-9 -24 9 -40 37 -33 29 7 35 30 10 40 -25 10 -41 7 -47
-7z"/>
<path d="M1230 2405 c0 -8 -7 -15 -15 -15 -8 0 -15 -5 -15 -10 0 -6 7 -13 15
-16 8 -4 15 -12 15 -20 0 -20 12 -17 38 10 26 28 28 36 7 36 -8 0 -15 7 -15
15 0 8 -7 15 -15 15 -8 0 -15 -7 -15 -15z m30 -30 c0 -8 -7 -15 -15 -15 -8 0
-15 7 -15 15 0 8 7 15 15 15 8 0 15 -7 15 -15z"/>
<path d="M1052 2258 c-16 -16 -15 -40 3 -64 10 -13 15 -45 15 -99 0 -44 5
-100 11 -125 6 -25 14 -90 17 -145 l7 -100 95 0 95 0 5 110 c3 61 9 116 14
123 4 8 12 50 17 95 6 45 12 103 15 128 10 85 4 89 -149 89 -90 0 -137 -4
-145 -12z m266 -65 c2 -34 0 -43 -12 -43 -9 0 -16 5 -16 10 0 6 -11 10 -25 10
-15 0 -28 7 -32 18 -10 27 -24 32 -95 32 -40 0 -68 4 -68 10 0 7 43 10 123 8
l122 -3 3 -42z m-112 -28 c3 -8 16 -17 27 -21 12 -4 33 -15 46 -25 24 -19 23
-19 -78 -19 l-101 0 0 40 0 40 50 0 c35 0 52 -4 56 -15z m94 -113 c0 -5 -7
-31 -15 -58 -8 -27 -15 -77 -15 -111 l0 -63 -70 0 -70 0 0 58 c-1 31 -7 83
-14 114 -8 31 -11 59 -8 62 9 9 192 7 192 -2z m-30 -282 c0 -6 -30 -10 -70
-10 -40 0 -70 4 -70 10 0 6 30 10 70 10 40 0 70 -4 70 -10z"/>
<path d="M1225 2030 c-4 -7 -3 -16 3 -22 14 -14 45 -2 40 15 -6 16 -34 21 -43
7z"/>
<path d="M1140 1990 c0 -15 5 -20 18 -18 9 2 17 10 17 18 0 8 -8 16 -17 18
-13 2 -18 -3 -18 -18z"/>
<path d="M1212 1963 c2 -10 10 -18 18 -18 8 0 16 8 18 18 2 12 -3 17 -18 17
-15 0 -20 -5 -18 -17z"/>
<path d="M1165 1930 c-8 -14 3 -30 21 -30 8 0 14 9 14 20 0 21 -24 28 -35 10z"/>
<path d="M1217 1874 c-14 -15 -6 -34 14 -34 14 0 19 5 17 17 -3 18 -20 27 -31
17z"/>
<path d="M2550 2218 c-25 -58 -34 -98 -22 -98 5 0 12 9 15 20 4 14 14 20 35
20 22 0 32 -6 37 -20 9 -29 28 -25 21 4 -11 46 -45 116 -56 116 -6 0 -20 -19
-30 -42z m44 -14 c9 -23 8 -24 -14 -24 -11 0 -20 2 -20 4 0 12 13 36 20 36 4
0 11 -7 14 -16z"/>
<path d="M2660 2206 c0 -30 -3 -61 -6 -70 -4 -11 -1 -16 10 -16 13 0 16 12 16
70 0 40 -4 70 -10 70 -5 0 -10 -24 -10 -54z"/>
<path d="M2920 2190 c0 -76 17 -97 22 -27 2 29 8 42 18 42 10 0 16 -13 18 -42
4 -59 22 -54 22 6 0 50 -13 67 -45 55 -10 -4 -15 0 -15 15 0 12 -4 21 -10 21
-6 0 -10 -30 -10 -70z"/>
<path d="M3140 2190 c0 -40 4 -70 10 -70 6 0 10 30 10 70 0 40 -4 70 -10 70
-6 0 -10 -30 -10 -70z"/>
<path d="M3190 2191 c0 -44 4 -71 11 -71 12 0 9 129 -3 136 -5 3 -8 -27 -8
-65z"/>
<path d="M3380 2190 l0 -70 33 0 c36 0 67 25 67 53 0 27 -38 59 -61 52 -15 -5
-19 -2 -19 14 0 12 -4 21 -10 21 -6 0 -10 -30 -10 -70z m69 1 c13 -24 -9 -57
-33 -48 -19 7 -22 53 -3 60 21 9 26 7 36 -12z"/>
<path d="M5262 2240 c-28 -26 -28 -32 4 -59 29 -25 27 -47 -4 -43 -29 4 -28
-2 4 -23 23 -15 27 -15 50 0 29 19 31 50 4 65 -29 15 -27 50 3 43 21 -5 21 -4
-3 16 -31 25 -31 26 -58 1z m22 -31 c-3 -5 -10 -7 -15 -3 -5 3 -7 10 -3 15 3
5 10 7 15 3 5 -3 7 -10 3 -15z m36 -64 c0 -8 -4 -15 -10 -15 -5 0 -10 7 -10
15 0 8 5 15 10 15 6 0 10 -7 10 -15z"/>
<path d="M5380 2230 c-36 -36 -15 -120 30 -120 47 0 70 89 32 123 -24 22 -38
21 -62 -3z m55 -50 c0 -39 -3 -45 -22 -48 -17 -3 -24 3 -29 22 -10 43 3 78 29
74 19 -3 22 -9 22 -48z"/>
<path d="M2722 2214 c-27 -19 -28 -55 -3 -78 21 -19 52 -18 59 2 3 9 -3 11
-21 7 -20 -5 -27 -2 -32 15 -9 27 12 52 36 45 23 -8 26 10 3 19 -20 8 -16 9
-42 -10z"/>
<path d="M2822 2214 c-27 -18 -29 -55 -4 -77 24 -22 45 -21 65 1 22 25 21 48
-3 72 -24 24 -29 24 -58 4z m52 -26 c11 -18 -7 -48 -30 -48 -18 0 -28 38 -13
56 14 17 28 14 43 -8z"/>
<path d="M3046 2217 c-35 -26 -17 -97 25 -97 37 0 63 54 41 86 -12 19 -47 25
-66 11z m52 -40 c4 -34 -25 -49 -44 -22 -10 13 -10 23 -3 37 15 27 43 18 47
-15z"/>
<path d="M3258 2223 c-21 -5 -33 -43 -23 -72 7 -22 46 -38 64 -26 20 12 11 24
-16 22 -23 -2 -29 3 -31 22 -4 27 15 43 41 35 21 -7 23 12 1 20 -9 3 -16 5
-17 5 -1 -1 -10 -3 -19 -6z"/>
<path d="M3523 2219 c-58 -21 -22 -113 37 -94 29 9 24 24 -6 22 -15 -1 -29 4
-31 11 -3 8 7 12 31 12 22 0 36 5 36 13 -1 31 -33 49 -67 36z m37 -19 c0 -5
-9 -10 -21 -10 -11 0 -17 5 -14 10 3 6 13 10 21 10 8 0 14 -4 14 -10z"/>
<path d="M3600 2221 c0 -18 39 -101 48 -101 12 0 45 86 39 103 -2 6 -12 -6
-22 -28 l-17 -40 -14 32 c-14 32 -34 53 -34 34z"/>
<path d="M3722 2214 c-27 -18 -28 -44 -4 -74 14 -18 25 -22 45 -16 35 8 35 25
1 23 -15 -1 -29 4 -31 11 -3 8 7 12 31 12 22 0 36 5 36 13 -1 36 -45 54 -78
31z m48 -14 c0 -5 -9 -10 -21 -10 -11 0 -17 5 -14 10 3 6 13 10 21 10 8 0 14
-4 14 -10z"/>
<path d="M3825 2222 c-9 -10 -5 -102 5 -102 6 0 10 15 10 34 0 24 7 39 20 49
21 14 21 15 -4 19 -14 3 -28 3 -31 0z"/>
<path d="M3908 2223 c-10 -2 -18 -9 -18 -14 0 -5 11 -7 25 -3 15 4 25 2 25 -5
0 -6 -6 -11 -14 -11 -8 0 -22 -7 -30 -16 -25 -25 -4 -54 39 -54 35 0 35 0 35
45 0 34 -5 47 -19 55 -11 5 -21 9 -23 9 -2 -1 -11 -3 -20 -6z m37 -62 c3 -5 1
-13 -5 -16 -15 -9 -43 3 -35 15 8 13 32 13 40 1z"/>
<path d="M4012 2219 c-17 -6 -22 -17 -22 -42 0 -40 15 -57 50 -57 19 0 22 -2
10 -10 -8 -5 -26 -7 -40 -4 -24 5 -24 5 -6 -10 23 -19 31 -19 57 -6 15 9 19
22 19 69 0 54 -2 59 -23 63 -13 3 -34 1 -45 -3z m43 -44 c0 -23 -4 -30 -20
-30 -21 0 -31 25 -21 51 11 28 41 12 41 -21z"/>
<path d="M4122 2214 c-27 -18 -28 -44 -4 -74 14 -18 25 -22 45 -16 35 8 35 25
1 23 -15 -1 -29 4 -31 11 -3 8 7 12 31 12 22 0 36 5 36 13 -1 36 -45 54 -78
31z m48 -14 c0 -5 -9 -10 -21 -10 -11 0 -17 5 -14 10 3 6 13 10 21 10 8 0 14
-4 14 -10z"/>
<path d="M4233 2223 c-22 -8 -14 -43 12 -55 14 -6 25 -16 25 -21 0 -5 -11 -7
-25 -5 -14 3 -25 2 -25 -3 0 -14 21 -21 46 -15 33 9 32 43 -1 56 -14 5 -25 15
-25 21 0 7 9 9 25 5 14 -4 25 -2 25 4 0 5 -4 10 -9 10 -5 0 -15 2 -23 4 -7 3
-19 2 -25 -1z"/>
</g>
</svg>
